<svg id="visual" viewBox="0 0 900 600" width="900" height="600" xmlns="http://www.w3.org/2000/svg" xmlns:xlink="http://www.w3.org/1999/xlink" version="1.1"><path d="M0 181L21.5 179C43 177 86 173 128.8 173C171.7 173 214.3 177 257.2 172C300 167 343 153 385.8 155C428.7 157 471.3 175 514.2 179C557 183 600 173 642.8 161C685.7 149 728.3 135 771.2 142C814 149 857 177 878.5 191L900 205L900 0L878.5 0C857 0 814 0 771.2 0C728.3 0 685.7 0 642.8 0C600 0 557 0 514.2 0C471.3 0 428.7 0 385.8 0C343 0 300 0 257.2 0C214.3 0 171.7 0 128.8 0C86 0 43 0 21.5 0L0 0Z" fill="#319fb1"></path><path d="M0 259L21.5 259C43 259 86 259 128.8 263C171.7 267 214.3 275 257.2 268C300 261 343 239 385.8 240C428.7 241 471.3 265 514.2 271C557 277 600 265 642.8 249C685.7 233 728.3 213 771.2 218C814 223 857 253 878.5 268L900 283L900 203L878.5 189C857 175 814 147 771.2 140C728.3 133 685.7 147 642.8 159C600 171 557 181 514.2 177C471.3 173 428.7 155 385.8 153C343 151 300 165 257.2 170C214.3 175 171.7 171 128.8 171C86 171 43 175 21.5 177L0 179Z" fill="#1e8c9e"></path><path d="M0 379L21.5 393C43 407 86 435 128.8 438C171.7 441 214.3 419 257.2 413C300 407 343 417 385.8 420C428.7 423 471.3 419 514.2 421C557 423 600 431 642.8 426C685.7 421 728.3 403 771.2 406C814 409 857 433 878.5 445L900 457L900 281L878.5 266C857 251 814 221 771.2 216C728.3 211 685.7 231 642.8 247C600 263 557 275 514.2 269C471.3 263 428.7 239 385.8 238C343 237 300 259 257.2 266C214.3 273 171.7 265 128.8 261C86 257 43 257 21.5 257L0 257Z" fill="#007a8c"></path><path d="M0 469L21.5 477C43 485 86 501 128.8 504C171.7 507 214.3 497 257.2 494C300 491 343 495 385.8 491C428.7 487 471.3 475 514.2 477C557 479 600 495 642.8 495C685.7 495 728.3 479 771.2 481C814 483 857 503 878.5 513L900 523L900 455L878.5 443C857 431 814 407 771.2 404C728.3 401 685.7 419 642.8 424C600 429 557 421 514.2 419C471.3 417 428.7 421 385.8 418C343 415 300 405 257.2 411C214.3 417 171.7 439 128.8 436C86 433 43 405 21.5 391L0 377Z" fill="#006979"></path><path d="M0 601L21.5 601C43 601 86 601 128.8 601C171.7 601 214.3 601 257.2 601C300 601 343 601 385.8 601C428.7 601 471.3 601 514.2 601C557 601 600 601 642.8 601C685.7 601 728.3 601 771.2 601C814 601 857 601 878.5 601L900 601L900 521L878.5 511C857 501 814 481 771.2 479C728.3 477 685.7 493 642.8 493C600 493 557 477 514.2 475C471.3 473 428.7 485 385.8 489C343 493 300 489 257.2 492C214.3 495 171.7 505 128.8 502C86 499 43 483 21.5 475L0 467Z" fill="#005966"></path></svg>