<svg id="visual" viewBox="0 0 900 600" width="900" height="600" xmlns="http://www.w3.org/2000/svg" xmlns:xlink="http://www.w3.org/1999/xlink" version="1.1"><g><g transform="translate(347 319)"><path d="M0 -62.8L49.1 -39.2L61.2 14L27.3 56.6L-27.3 56.6L-61.2 14L-49.1 -39.2Z" fill="none" stroke="#00798c" stroke-width="1"></path></g><g transform="translate(582 433)"><path d="M0 -49L38.3 -30.6L47.8 10.9L21.3 44.1L-21.3 44.1L-47.8 10.9L-38.3 -30.6Z" fill="none" stroke="#00798c" stroke-width="1"></path></g><g transform="translate(109 482)"><path d="M0 -41L32.1 -25.6L40 9.1L17.8 36.9L-17.8 36.9L-40 9.1L-32.1 -25.6Z" stroke="#00798c" fill="none" stroke-width="1"></path></g><g transform="translate(130 119)"><path d="M0 -43L33.6 -26.8L41.9 9.6L18.7 38.7L-18.7 38.7L-41.9 9.6L-33.6 -26.8Z" stroke="#00798c" fill="none" stroke-width="1"></path></g><g transform="translate(763 214)"><path d="M0 -32L25 -20L31.2 7.1L13.9 28.8L-13.9 28.8L-31.2 7.1L-25 -20Z" stroke="#00798c" fill="none" stroke-width="1"></path></g><g transform="translate(610 288)"><path d="M0 -51L39.9 -31.8L49.7 11.3L22.1 45.9L-22.1 45.9L-49.7 11.3L-39.9 -31.8Z" stroke="#00798c" fill="none" stroke-width="1"></path></g></g></svg>