<svg id="visual" viewBox="0 0 900 600" width="900" height="600" xmlns="http://www.w3.org/2000/svg" xmlns:xlink="http://www.w3.org/1999/xlink" version="1.1"><path d="M0 385L21.5 382C43 379 86 373 128.8 376.2C171.7 379.3 214.3 391.7 257.2 397.3C300 403 343 402 385.8 401.5C428.7 401 471.3 401 514.2 404C557 407 600 413 642.8 405.2C685.7 397.3 728.3 375.7 771.2 380C814 384.3 857 414.7 878.5 429.8L900 445L900 601L878.5 601C857 601 814 601 771.2 601C728.3 601 685.7 601 642.8 601C600 601 557 601 514.2 601C471.3 601 428.7 601 385.8 601C343 601 300 601 257.2 601C214.3 601 171.7 601 128.8 601C86 601 43 601 21.5 601L0 601Z" fill="#67b2be"></path><path d="M0 458L21.5 456.3C43 454.7 86 451.3 128.8 450.2C171.7 449 214.3 450 257.2 454.3C300 458.7 343 466.3 385.8 464.5C428.7 462.7 471.3 451.3 514.2 450.7C557 450 600 460 642.8 454.8C685.7 449.7 728.3 429.3 771.2 422.8C814 416.3 857 423.7 878.5 427.3L900 431L900 601L878.5 601C857 601 814 601 771.2 601C728.3 601 685.7 601 642.8 601C600 601 557 601 514.2 601C471.3 601 428.7 601 385.8 601C343 601 300 601 257.2 601C214.3 601 171.7 601 128.8 601C86 601 43 601 21.5 601L0 601Z" fill="#54a4b1"></path><path d="M0 478L21.5 477.3C43 476.7 86 475.3 128.8 471.3C171.7 467.3 214.3 460.7 257.2 462.8C300 465 343 476 385.8 481.2C428.7 486.3 471.3 485.7 514.2 477.8C557 470 600 455 642.8 457.2C685.7 459.3 728.3 478.7 771.2 482.2C814 485.7 857 473.3 878.5 467.2L900 461L900 601L878.5 601C857 601 814 601 771.2 601C728.3 601 685.7 601 642.8 601C600 601 557 601 514.2 601C471.3 601 428.7 601 385.8 601C343 601 300 601 257.2 601C214.3 601 171.7 601 128.8 601C86 601 43 601 21.5 601L0 601Z" fill="#4096a5"></path><path d="M0 506L21.5 507.3C43 508.7 86 511.3 128.8 517.3C171.7 523.3 214.3 532.7 257.2 537.3C300 542 343 542 385.8 539.5C428.7 537 471.3 532 514.2 527.5C557 523 600 519 642.8 512.2C685.7 505.3 728.3 495.7 771.2 498.2C814 500.7 857 515.3 878.5 522.7L900 530L900 601L878.5 601C857 601 814 601 771.2 601C728.3 601 685.7 601 642.8 601C600 601 557 601 514.2 601C471.3 601 428.7 601 385.8 601C343 601 300 601 257.2 601C214.3 601 171.7 601 128.8 601C86 601 43 601 21.5 601L0 601Z" fill="#298898"></path><path d="M0 548L21.5 548.5C43 549 86 550 128.8 546.2C171.7 542.3 214.3 533.7 257.2 532.5C300 531.3 343 537.7 385.8 539.8C428.7 542 471.3 540 514.2 536.8C557 533.7 600 529.3 642.8 531.7C685.7 534 728.3 543 771.2 548.3C814 553.7 857 555.3 878.5 556.2L900 557L900 601L878.5 601C857 601 814 601 771.2 601C728.3 601 685.7 601 642.8 601C600 601 557 601 514.2 601C471.3 601 428.7 601 385.8 601C343 601 300 601 257.2 601C214.3 601 171.7 601 128.8 601C86 601 43 601 21.5 601L0 601Z" fill="#007a8c"></path></svg>